<mxfile host="app.diagrams.net" modified="2023-05-31T03:34:57.675Z" agent="5.0 (Windows)" etag="xDHLpDBUVlNsXmgeXbfn" version="21.0.6" type="github" pages="4">
  <diagram name="空间车位搜索" id="rTubMK2wZoEOYcJF3hK4">
    <mxGraphModel dx="1008" dy="510" grid="1" gridSize="10" guides="1" tooltips="1" connect="1" arrows="1" fold="1" page="1" pageScale="1" pageWidth="827" pageHeight="1169" math="0" shadow="0">
      <root>
        <mxCell id="0" />
        <mxCell id="1" parent="0" />
        <mxCell id="_BkGIYK7mURFWtTrtGZU-19" value="" style="rounded=0;whiteSpace=wrap;html=1;" vertex="1" parent="1">
          <mxGeometry x="240" y="290" width="410" height="310" as="geometry" />
        </mxCell>
        <mxCell id="_BkGIYK7mURFWtTrtGZU-1" value="" style="rounded=0;whiteSpace=wrap;html=1;" vertex="1" parent="1">
          <mxGeometry x="240" y="10" width="240" height="150" as="geometry" />
        </mxCell>
        <mxCell id="_BkGIYK7mURFWtTrtGZU-2" value="" style="rounded=0;whiteSpace=wrap;html=1;" vertex="1" parent="1">
          <mxGeometry x="240" y="170" width="440" height="100" as="geometry" />
        </mxCell>
        <mxCell id="_BkGIYK7mURFWtTrtGZU-5" value="车位参数" style="rounded=0;whiteSpace=wrap;html=1;" vertex="1" parent="1">
          <mxGeometry x="40" y="280" width="160" height="60" as="geometry" />
        </mxCell>
        <mxCell id="_BkGIYK7mURFWtTrtGZU-6" value="雷达数据" style="rounded=0;whiteSpace=wrap;html=1;" vertex="1" parent="1">
          <mxGeometry x="40" y="360" width="160" height="60" as="geometry" />
        </mxCell>
        <mxCell id="_BkGIYK7mURFWtTrtGZU-7" value="车辆运动参数" style="rounded=0;whiteSpace=wrap;html=1;" vertex="1" parent="1">
          <mxGeometry x="40" y="430" width="160" height="60" as="geometry" />
        </mxCell>
        <mxCell id="_BkGIYK7mURFWtTrtGZU-8" value="车长" style="rounded=0;whiteSpace=wrap;html=1;fillColor=#e51400;fontColor=#ffffff;strokeColor=default;strokeWidth=1;" vertex="1" parent="1">
          <mxGeometry x="260" y="30" width="80" height="40" as="geometry" />
        </mxCell>
        <mxCell id="_BkGIYK7mURFWtTrtGZU-9" value="车宽" style="rounded=0;whiteSpace=wrap;html=1;fillColor=#e51400;fontColor=#ffffff;strokeColor=#000000;strokeWidth=1;" vertex="1" parent="1">
          <mxGeometry x="360" y="30" width="80" height="40" as="geometry" />
        </mxCell>
        <mxCell id="_BkGIYK7mURFWtTrtGZU-10" value="各雷达在车位后轴坐标系下的安装位置" style="rounded=0;whiteSpace=wrap;html=1;fillColor=#e51400;fontColor=#ffffff;strokeColor=#000000;" vertex="1" parent="1">
          <mxGeometry x="260" y="90" width="100" height="60" as="geometry" />
        </mxCell>
        <mxCell id="_BkGIYK7mURFWtTrtGZU-11" value="车辆参数" style="text;html=1;strokeColor=none;fillColor=none;align=center;verticalAlign=middle;whiteSpace=wrap;rounded=0;" vertex="1" parent="1">
          <mxGeometry x="390" y="105" width="60" height="30" as="geometry" />
        </mxCell>
        <mxCell id="_BkGIYK7mURFWtTrtGZU-12" value="空间车位搜索使能信号" style="rounded=0;whiteSpace=wrap;html=1;fillColor=#e51400;fontColor=#ffffff;strokeColor=#000000;" vertex="1" parent="1">
          <mxGeometry x="250" y="180" width="120" height="60" as="geometry" />
        </mxCell>
        <mxCell id="_BkGIYK7mURFWtTrtGZU-13" value="模块控制参数" style="text;html=1;strokeColor=none;fillColor=none;align=center;verticalAlign=middle;whiteSpace=wrap;rounded=0;" vertex="1" parent="1">
          <mxGeometry x="270" y="240" width="80" height="30" as="geometry" />
        </mxCell>
        <mxCell id="_BkGIYK7mURFWtTrtGZU-14" value="左侧跳变点角点标定参数" style="rounded=0;whiteSpace=wrap;html=1;fillColor=#e51400;fontColor=#ffffff;strokeColor=#000000;" vertex="1" parent="1">
          <mxGeometry x="250" y="300" width="120" height="60" as="geometry" />
        </mxCell>
        <mxCell id="_BkGIYK7mURFWtTrtGZU-15" value="跳变点和画圆开关" style="rounded=0;whiteSpace=wrap;html=1;fillColor=#e51400;fontColor=#ffffff;strokeColor=#000000;" vertex="1" parent="1">
          <mxGeometry x="380" y="180" width="90" height="60" as="geometry" />
        </mxCell>
        <mxCell id="_BkGIYK7mURFWtTrtGZU-16" value="右跳变点角点标定参数" style="rounded=0;whiteSpace=wrap;html=1;fillColor=#e51400;fontColor=#ffffff;strokeColor=#000000;" vertex="1" parent="1">
          <mxGeometry x="390" y="300" width="120" height="60" as="geometry" />
        </mxCell>
        <mxCell id="_BkGIYK7mURFWtTrtGZU-17" value="左侧画圆角点标定参数" style="rounded=0;whiteSpace=wrap;html=1;fillColor=#e51400;fontColor=#ffffff;strokeColor=#000000;" vertex="1" parent="1">
          <mxGeometry x="250" y="380" width="120" height="60" as="geometry" />
        </mxCell>
        <mxCell id="_BkGIYK7mURFWtTrtGZU-18" value="右侧跳变点标定参数" style="rounded=0;whiteSpace=wrap;html=1;fillColor=#e51400;fontColor=#ffffff;strokeColor=#000000;" vertex="1" parent="1">
          <mxGeometry x="390" y="380" width="120" height="60" as="geometry" />
        </mxCell>
        <mxCell id="_BkGIYK7mURFWtTrtGZU-20" value="标定数据" style="text;html=1;strokeColor=none;fillColor=none;align=center;verticalAlign=middle;whiteSpace=wrap;rounded=0;" vertex="1" parent="1">
          <mxGeometry x="530" y="295" width="60" height="30" as="geometry" />
        </mxCell>
        <mxCell id="_BkGIYK7mURFWtTrtGZU-23" value="最小无有效障碍物车位宽度" style="rounded=0;whiteSpace=wrap;html=1;fillColor=#e51400;fontColor=#ffffff;strokeColor=#000000;" vertex="1" parent="1">
          <mxGeometry x="250" y="450" width="120" height="60" as="geometry" />
        </mxCell>
        <mxCell id="_BkGIYK7mURFWtTrtGZU-24" value="前障碍物最小宽度" style="rounded=0;whiteSpace=wrap;html=1;fillColor=#e51400;fontColor=#ffffff;strokeColor=#000000;" vertex="1" parent="1">
          <mxGeometry x="390" y="450" width="120" height="60" as="geometry" />
        </mxCell>
        <mxCell id="_BkGIYK7mURFWtTrtGZU-25" value="后障碍物最小宽度" style="rounded=0;whiteSpace=wrap;html=1;fillColor=#e51400;fontColor=#ffffff;strokeColor=#000000;" vertex="1" parent="1">
          <mxGeometry x="250" y="520" width="120" height="60" as="geometry" />
        </mxCell>
        <mxCell id="_BkGIYK7mURFWtTrtGZU-26" value="车位搜索有效雷达最短距离" style="rounded=0;whiteSpace=wrap;html=1;fillColor=#e51400;fontColor=#ffffff;strokeColor=#000000;" vertex="1" parent="1">
          <mxGeometry x="520" y="380" width="120" height="60" as="geometry" />
        </mxCell>
        <mxCell id="_BkGIYK7mURFWtTrtGZU-27" value="车位搜索有效雷达最长距离" style="rounded=0;whiteSpace=wrap;html=1;fillColor=#e51400;fontColor=#ffffff;strokeColor=#000000;" vertex="1" parent="1">
          <mxGeometry x="520" y="450" width="120" height="60" as="geometry" />
        </mxCell>
        <mxCell id="_BkGIYK7mURFWtTrtGZU-28" value="水平路沿车位偏移开关" style="rounded=0;whiteSpace=wrap;html=1;fillColor=#e51400;fontColor=#ffffff;strokeColor=#000000;" vertex="1" parent="1">
          <mxGeometry x="490" y="180" width="90" height="60" as="geometry" />
        </mxCell>
        <mxCell id="_BkGIYK7mURFWtTrtGZU-30" value="水平路沿车位Y方向偏移值" style="rounded=0;whiteSpace=wrap;html=1;fillColor=#e51400;fontColor=#ffffff;strokeColor=#000000;" vertex="1" parent="1">
          <mxGeometry x="390" y="520" width="90" height="60" as="geometry" />
        </mxCell>
      </root>
    </mxGraphModel>
  </diagram>
  <diagram id="wIggkck0ZkFo2g9gGhRl" name="一级融合">
    <mxGraphModel dx="1210" dy="612" grid="1" gridSize="10" guides="1" tooltips="1" connect="1" arrows="1" fold="1" page="1" pageScale="1" pageWidth="827" pageHeight="1169" math="0" shadow="0">
      <root>
        <mxCell id="0" />
        <mxCell id="1" parent="0" />
      </root>
    </mxGraphModel>
  </diagram>
  <diagram id="Kwn7oyu2T2cvSMA2chV_" name="二级融合">
    <mxGraphModel dx="1210" dy="612" grid="1" gridSize="10" guides="1" tooltips="1" connect="1" arrows="1" fold="1" page="1" pageScale="1" pageWidth="827" pageHeight="1169" math="0" shadow="0">
      <root>
        <mxCell id="0" />
        <mxCell id="1" parent="0" />
      </root>
    </mxGraphModel>
  </diagram>
  <diagram id="yD4RO-0tTq7VEkZo4QJI" name="视觉预处理">
    <mxGraphModel dx="1210" dy="612" grid="1" gridSize="10" guides="1" tooltips="1" connect="1" arrows="1" fold="1" page="1" pageScale="1" pageWidth="827" pageHeight="1169" math="0" shadow="0">
      <root>
        <mxCell id="0" />
        <mxCell id="1" parent="0" />
      </root>
    </mxGraphModel>
  </diagram>
</mxfile>
